<?xml version="1.0" encoding="utf-8"?>
<!DOCTYPE svg PUBLIC "-//W3C//DTD SVG 1.1//EN" "http://www.w3.org/Graphics/SVG/1.1/DTD/svg11.dtd">
<svg version="1.1" xmlns="http://www.w3.org/2000/svg" xmlns:xlink="http://www.w3.org/1999/xlink" x="0px" y="0px" width="100%"
	 height="100%" viewBox="0 0 26 468" enable-background="new 0 0 26 468" xml:space="preserve">
	<symbol id="svg-btn-table" viewBox="0 0 26 26">	
		<path id="table" d="M17,5h-1h-6H9H2v4v1v3v1v3v1v4h22v-4v-1v-3v-1v-3V9V5H17z M16,6v3h-6V6H16z M10,13v-3h6v3H10z
			 M16,14v3h-6v-3H16z M3,6h6v3H3V6z M3,10h6v3H3V10z M3,14h6v3H3V14z M3,21v-3h6v3H3z M10,21v-3h6v3H10z M23,21h-6v-3h6V21z M23,17
			h-6v-3h6V17z M23,13h-6v-3h6V13z M17,9V6h6v3H17z"/>
	</symbol>
	<symbol id="newslide">
			<rect x="8" y="298" width="10" height="2"/>
			<rect x="12" y="294" width="2" height="10"/>
			<path d="M22,290v18H4v-18H22 M23,289H3v20h20V289L23,289z"/>
	</symbol>
	<symbol id="svg-btn-chart" viewBox="0 52 26 26">
			<path d="M15,62v11h-4V62H15 M16,61h-6v13h6V61L16,61z"/>
			<path d="M7,68v5H3v-5H7 M8,67H2v7h6V67L8,67z"/>
			<path d="M23,57v16h-4V57H23 M24,56h-6v18h6V56L24,56z"/>
	</symbol>
	<symbol id="svg-btn-hlink" viewBox="0 234 26 26">
		<path id="link" d="M23.749,238.34l-1.559-1.559c-1.043-1.041-2.857-1.04-3.896,0l-4.677,4.676
			c-1.074,1.076-1.074,2.824,0,3.898l0.39,0.39l-1.236,1.235l-0.39-0.389c-1.043-1.042-2.855-1.041-3.897,0l-4.676,4.677
			C3.286,251.788,3,252.48,3,253.217c0,0.735,0.286,1.427,0.808,1.948l1.559,1.559c0.521,0.521,1.213,0.808,1.948,0.808
			c0.736,0,1.429-0.286,1.948-0.808l4.677-4.676c1.074-1.075,1.074-2.823,0-3.897l-0.39-0.391l1.236-1.235l0.39,0.39
			c0.521,0.521,1.213,0.808,1.949,0.808c0.735,0,1.428-0.287,1.948-0.808l4.676-4.676c0.521-0.521,0.808-1.213,0.808-1.949
			S24.271,238.861,23.749,238.34z M13.16,248.93c0.646,0.645,0.646,1.693,0,2.339l-4.677,4.676c-0.623,0.624-1.713,0.625-2.338,0
			l-1.559-1.559c-0.313-0.313-0.484-0.728-0.484-1.169c0-0.442,0.172-0.857,0.484-1.169l4.676-4.677
			c0.313-0.313,0.728-0.484,1.17-0.484c0.441,0,0.857,0.172,1.169,0.484l0.39,0.389l-2.338,2.338c-0.215,0.216-0.215,0.564,0,0.779
			c0.107,0.108,0.249,0.162,0.39,0.162c0.142,0,0.282-0.054,0.39-0.162l2.338-2.338L13.16,248.93z M22.97,241.457l-4.676,4.678
			c-0.625,0.625-1.716,0.623-2.339,0l-0.39-0.39l2.736-2.737c0.215-0.215,0.215-0.563,0-0.779c-0.216-0.215-0.564-0.215-0.779,0
			l-2.736,2.737l-0.39-0.39c-0.646-0.645-0.646-1.694,0-2.34l4.677-4.676c0.313-0.313,0.727-0.484,1.169-0.484
			c0.441,0,0.857,0.173,1.169,0.484l1.559,1.559c0.313,0.313,0.484,0.729,0.484,1.17S23.282,241.146,22.97,241.457z"/>
	</symbol>
	<symbol id="svg-btn-textbox" viewBox="0 78 26 26">
			<path d="M22,82v18H4V82H22 M24,80h-2v1H4v-1H2v2h1v18H2v2h2v-1h18v1h2v-2h-1V82h1V80L24,80z"/>
			<path d="M14,96h-2v-8H9v-2h8v2h-3V96z"/>
	</symbol>
	<symbol id="svg-btn-equation" viewBox="0 182 26 26">
			<path d="M11.155,191.746c0.337-0.111,0.656-0.214,0.96-0.307c0.302-0.093,0.578-0.173,0.827-0.238
				c0.249-0.066,0.465-0.116,0.648-0.15c0.183-0.034,0.325-0.051,0.429-0.051c0.15,0,0.294,0.021,0.428,0.065
				c0.135,0.044,0.264,0.13,0.389,0.257c0.124,0.127,0.246,0.303,0.366,0.527c0.119,0.225,0.24,0.515,0.362,0.871
				c0.146,0.43,0.293,0.836,0.439,1.22c0.146,0.383,0.288,0.765,0.425,1.146c0.313-0.619,0.624-1.185,0.934-1.695
				c0.311-0.51,0.623-0.944,0.938-1.304c0.315-0.358,0.635-0.637,0.96-0.835c0.324-0.197,0.657-0.297,1-0.297
				c0.219,0,0.412,0.033,0.578,0.1c0.166,0.065,0.307,0.152,0.421,0.26c0.115,0.107,0.2,0.233,0.257,0.377
				c0.056,0.145,0.084,0.292,0.084,0.443c0,0.205-0.051,0.409-0.154,0.611c-0.102,0.203-0.259,0.375-0.469,0.517h-0.059
				c-0.088-0.107-0.179-0.194-0.274-0.26c-0.095-0.066-0.191-0.117-0.289-0.154c-0.098-0.036-0.194-0.061-0.289-0.073
				c-0.096-0.012-0.187-0.018-0.274-0.018c-0.289,0-0.565,0.081-0.832,0.245c-0.266,0.163-0.523,0.391-0.772,0.681
				c-0.249,0.291-0.492,0.634-0.729,1.029c-0.237,0.396-0.473,0.828-0.707,1.297c0.229,0.629,0.44,1.184,0.634,1.662
				c0.192,0.479,0.374,0.893,0.545,1.241c0.171,0.35,0.338,0.642,0.498,0.876c0.162,0.234,0.325,0.422,0.491,0.563
				s0.339,0.241,0.521,0.3c0.18,0.059,0.378,0.088,0.593,0.088c0.146,0,0.282-0.004,0.406-0.014c0.125-0.01,0.247-0.026,0.366-0.048
				c0.12-0.022,0.246-0.053,0.377-0.092c0.133-0.039,0.279-0.088,0.439-0.146l0.146,0.417c-0.234,0.162-0.485,0.31-0.754,0.443
				c-0.269,0.135-0.54,0.249-0.813,0.345c-0.274,0.095-0.541,0.168-0.803,0.22c-0.261,0.051-0.504,0.076-0.729,0.076
				c-0.317,0-0.602-0.076-0.854-0.23c-0.251-0.153-0.49-0.397-0.718-0.732c-0.227-0.334-0.455-0.762-0.685-1.281
				c-0.229-0.521-0.483-1.146-0.762-1.879c-0.347,0.615-0.689,1.18-1.029,1.691c-0.339,0.514-0.68,0.954-1.021,1.322
				c-0.342,0.369-0.685,0.656-1.029,0.861c-0.344,0.205-0.691,0.307-1.043,0.307c-0.216,0-0.403-0.029-0.564-0.088
				s-0.296-0.137-0.402-0.234c-0.108-0.098-0.189-0.211-0.246-0.34c-0.056-0.13-0.084-0.265-0.084-0.406
				c0-0.166,0.037-0.335,0.109-0.506c0.074-0.171,0.184-0.334,0.33-0.49c0.264,0.098,0.499,0.166,0.707,0.205
				c0.207,0.039,0.396,0.059,0.567,0.059c0.313,0,0.612-0.078,0.901-0.234c0.287-0.156,0.568-0.378,0.842-0.663
				c0.273-0.286,0.544-0.631,0.813-1.036s0.54-0.857,0.813-1.355c-0.088-0.234-0.177-0.477-0.268-0.725
				c-0.09-0.25-0.187-0.512-0.289-0.788c-0.103-0.275-0.21-0.568-0.322-0.879c-0.112-0.31-0.232-0.641-0.358-0.992
				c-0.113-0.298-0.224-0.541-0.334-0.729c-0.109-0.188-0.227-0.336-0.352-0.443c-0.124-0.107-0.259-0.181-0.402-0.22
				c-0.145-0.039-0.305-0.059-0.48-0.059c-0.156,0-0.34,0.019-0.553,0.055c-0.212,0.037-0.443,0.082-0.691,0.136L11.155,191.746z"/>
			<polygon points="6,204 4,195 2,195 2,194 5,194 6,199 8,188 24,188 24,189 9,189 			"/>
	</symbol>
	<symbol id="svg-btn-accept" viewBox="0 364 26 26">
		<polygon id="accept" points="10,388 3,379 4,378 10,383 22,370 23,371 	"/>
	</symbol>
	<symbol id="svg-btn-reject" viewBox="0 390 26 26">
		<polygon id="reject" stroke-miterlimit="10" points="20,396.875 19.125,396 13,402.125 6.875,396 
			6,396.875 12.125,403 6,409.125 6.875,410 13,403.875 19.125,410 20,409.125 13.875,403 	"/>
	</symbol>
	<symbol id="svg-btn-next" viewBox="0 416 26 26">
		<polygon id="next" points="13.5,422 11.5,423 17.181,428 4,428 4,430 17.177,430 11.5,435 13.5,436 21.5,429 	"/>
	</symbol>
	<symbol id="svg-btn-prev" viewBox="0 442 26 26">
		<polygon id="previous" points="12.5,462 14.5,461 8.819,456 21,456 21,454 8.823,454 14.5,449 12.5,448 4.5,455 	"/>
	</symbol>
	<symbol id="svg-btn-comment" viewBox="0 260 26 26">
			<rect x="7" y="267" width="12" height="1"/>
			<rect x="7" y="270" width="12" height="1"/>
			<rect x="7" y="273" width="6" height="1"/>
			<path d="M22,264c0.552,0,1,0.448,1,1v12c0,0.552-0.448,1-1,1H12h-0.414l-0.293,0.293L9,280.586l-2.293-2.293
				L6.414,278H6H4c-0.551,0-1-0.448-1-1v-12c0-0.552,0.449-1,1-1H22 M22,263H4c-1.104,0-2,0.896-2,2v12c0,1.104,0.896,2,2,2h2l3,3
				l3-3h10c1.104,0,2-0.896,2-2v-12C24,263.896,23.104,263,22,263L22,263z"/>
	</symbol>
	<symbol id="svg-btn-shape" viewBox="0 104 26 26">
		<path id="shape" d="M16,112v-6H2v14h6c0,4.417,3.58,8,8,8s8-3.583,8-8S20.42,112,16,112z M3,119v-12h12v5.069
			c-3.618,0.452-6.479,3.315-6.931,6.931H3z M16,127c-3.859,0-7-3.14-7-7s3.141-7,7-7s7,3.14,7,7S19.859,127,16,127z"/>
	</symbol>
	<symbol id="svg-btn-spellcheck" viewBox="0 312 26 26">
			<rect x="8" y="319" width="10" height="1"/>
			<rect x="8" y="322" width="10" height="1"/>
			<rect x="8" y="328" width="3" height="1"/>
			<rect x="8" y="325" width="10" height="1"/>
			<polygon points="16,334 12,329 13,328 16,331 23,322 24,323 			"/>
			<path d="M22,321v-6c0-0.553-0.447-1-1-1H5c-0.553,0-1,0.447-1,1v20c0,0.553,0.447,1,1,1h16c0.553,0,1-0.447,1-1v-5
				h-1v5H5v-20h16v6H22z"/>
	</symbol>
	<symbol id="svg-btn-review" viewBox="0 338 26 26">
		<path d="M12.434,356.969L11,359h2l0.985-0.77l1.338-0.059l5.469-6.723L25,346.278l-1.551-1.262l-1.551-1.262
			l-4.208,5.17l-5.47,6.723L12.434,356.969z M22.043,345.16l1.551,1.262l-7.574,9.309l-1.551-1.263L22.043,345.16z"/>
			<rect x="8" y="345" width="10" height="1"/>
			<rect x="8" y="348" width="7" height="1"/>
			<rect x="8" y="354" width="3" height="1"/>
			<rect x="8" y="351" width="5" height="1"/>
		<path d="M22,343v-2c0-0.553-0.447-1-1-1H5c-0.553,0-1,0.447-1,1v20c0,0.553,0.447,1,1,1h16c0.553,0,1-0.447,1-1v-8
			h-1v8H5v-20h16v2H22z"/>
	</symbol>
	<symbol id="svg-btn-image" viewBox="0 26 26 26">
			<path d="M8,32.111c1.042,0,1.889,0.847,1.889,1.889S9.042,35.889,8,35.889S6.111,35.042,6.111,34
				S6.958,32.111,8,32.111 M8,31c-1.657,0-3,1.343-3,3s1.343,3,3,3s3-1.343,3-3S9.657,31,8,31L8,31z"/>
			<path d="M3,29v18v2h20v-8V29H3z M22,48H4v-0.57l12.048-10.255L22,41.478V48z M16,36L4,46.154V30h18v10.286L16,36z"/>
	</symbol>
	<symbol id="svg-btn-notes" viewBox="0 208 26 26">
			<path d="M21.527,212.758V212c0.352-0.016,0.597-0.039,0.736-0.07c0.225-0.049,0.406-0.148,0.546-0.297
				c0.097-0.102,0.169-0.237,0.218-0.406c0.029-0.102,0.043-0.177,0.043-0.227H24v6h-1v-4.242H21.527z"/>
			<path d="M7.853,215.806h1.865L14.143,228h-1.809l-1.273-3.652H6.277L4.955,228H3.261L7.853,215.806z
				 M10.592,223.003l-1.877-5.387l-1.951,5.387H10.592z"/>
			<path d="M15,216h1.762v4.424c0.328-0.426,0.72-0.751,1.175-0.975c0.456-0.225,0.95-0.336,1.483-0.336
				c1.111,0,2.013,0.38,2.704,1.141c0.691,0.761,1.038,1.883,1.038,3.366c0,1.406-0.342,2.573-1.025,3.503s-1.631,1.395-2.842,1.395
				c-0.678,0-1.25-0.163-1.717-0.49c-0.277-0.194-0.574-0.503-0.891-0.93v1.137H15V216z M21.022,226
				c0.402-0.642,0.604-1.489,0.604-2.54c0-0.935-0.201-1.71-0.604-2.324c-0.403-0.614-0.996-0.921-1.778-0.921
				c-0.684,0-1.281,0.252-1.795,0.755s-0.771,1.333-0.771,2.49c0,0.835,0.105,1.514,0.316,2.034c0.395,0.979,1.13,1.469,2.207,1.469
				C20.013,226.962,20.619,226.642,21.022,226z"/>
	</symbol>
	<symbol id="svg-btn-lang" viewBox="0 130 26 26">
		<path id="language" d="M20.919,136.911c0-0.002-0.002-0.004-0.003-0.006l0,0C19.087,134.534,16.226,133,13,133
			s-6.087,1.534-7.916,3.905l0,0c-0.001,0.002-0.003,0.004-0.003,0.006C3.781,138.598,3,140.706,3,143c0,5.522,4.478,10,10,10
			s10-4.478,10-10C23,140.706,22.219,138.598,20.919,136.911z M9.931,139.452c0.971,0.135,1.995,0.215,3.069,0.215
			s2.099-0.08,3.069-0.215c0.181,1.057,0.289,2.24,0.289,3.548H9.642C9.642,141.692,9.75,140.509,9.931,139.452z M13,133.927
			c0.979,0,2.228,1.688,2.892,4.62c-0.887,0.119-1.848,0.192-2.892,0.192s-2.005-0.073-2.892-0.192
			C10.772,135.615,12.021,133.927,13,133.927z M16.338,144c-0.057,1-0.231,2.592-0.485,3.655c-0.905-0.117-1.858-0.198-2.853-0.198
			s-1.947,0.086-2.853,0.202C9.894,146.598,9.719,145,9.662,144H16.338z M15.606,148.527c-0.699,2.264-1.754,3.546-2.606,3.546
			s-1.907-1.282-2.606-3.546c0.808-0.096,1.673-0.155,2.606-0.155S14.799,148.432,15.606,148.527z M9.231,147.791
			c-1.243,0.22-2.364,0.549-3.298,0.951C4.857,147.414,4.146,146,3.96,144h4.774C8.792,145,8.963,146.64,9.231,147.791z
			 M9.468,148.659c0.396,1.346,0.931,2.45,1.556,3.209c-1.706-0.381-3.236-1.236-4.435-2.43
			C7.389,149.121,8.353,148.849,9.468,148.659z M16.532,148.659c1.115,0.189,2.079,0.462,2.879,0.779
			c-1.198,1.193-2.729,2.049-4.435,2.43C15.602,151.109,16.136,150.005,16.532,148.659z M16.769,147.791
			c0.269-1.151,0.439-2.791,0.497-3.791h4.774c-0.187,2-0.897,3.414-1.974,4.742C19.133,148.34,18.012,148.011,16.769,147.791z
			 M17.286,143c0-1.306-0.111-2.55-0.306-3.693c1.433-0.268,2.691-0.673,3.682-1.179c0.9,1.408,1.429,3.078,1.429,4.872H17.286z
			 M20.116,137.358c-0.855,0.424-1.964,0.798-3.312,1.048c-0.406-1.827-1.045-3.324-1.828-4.274
			C17.042,134.591,18.842,135.755,20.116,137.358z M11.023,134.132c-0.783,0.95-1.422,2.447-1.828,4.274
			c-1.348-0.25-2.456-0.624-3.312-1.048C7.158,135.755,8.958,134.591,11.023,134.132z M5.338,138.128
			c0.99,0.506,2.249,0.911,3.682,1.179c-0.194,1.144-0.306,2.388-0.306,3.693H3.909C3.909,141.206,4.438,139.536,5.338,138.128z"/>
	</symbol>
	<symbol id="svg-btn-textart" viewBox="0 156 26 26">
			<path d="M9,173H7v-13H3v-2h10v2H9V173z"/>
			<path d="M21.582,172.438l-0.322-1.529h-0.078c-0.535,0.673-1.07,1.129-1.604,1.367
				c-0.533,0.239-1.197,0.358-1.996,0.358c-1.064,0-1.9-0.274-2.506-0.823c-0.604-0.55-0.906-1.33-0.906-2.344
				c0-2.171,1.734-3.309,5.207-3.413l1.824-0.059v-0.667c0-0.844-0.182-1.466-0.545-1.868s-0.941-0.604-1.74-0.604
				c-0.895,0-1.908,0.274-3.041,0.824l-0.5-1.246c0.529-0.287,1.111-0.513,1.74-0.676c0.633-0.163,1.266-0.245,1.898-0.245
				c1.281,0,2.23,0.284,2.85,0.853C22.48,162.936,23,163.745,23,165l-0.211,7.438H21.582z M17.906,171.29
				c1.014,0,1.809-0.278,2.387-0.833c0.578-0.556,0.869-1.334,0.869-2.334v-0.971l-1.629,0.068
				c-1.295,0.045-2.227,0.246-2.799,0.604c-0.572,0.356-0.859,0.91-0.859,1.662c0,0.588,0.18,1.035,0.535,1.343
				C16.768,171.137,17.266,171.29,17.906,171.29z"/>
			<path d="M4.729,180c0.886-1.977,4.311-3.5,8.271-3.5s7.385,1.523,8.271,3.5h1.071c-0.792-2.59-4.607-4.5-9.342-4.5
				c-4.735,0-8.55,1.91-9.342,4.5H4.729z"/>
	</symbol>
</svg>
